<svg width="18" height="18" viewBox="0 0 18 18" fill="none" xmlns="http://www.w3.org/2000/svg">
<path d="M1.5 3.16667H4.83333M4.83333 3.16667C4.83333 4.08714 5.57953 4.83333 6.5 4.83333C7.42047 4.83333 8.16667 4.08714 8.16667 3.16667M4.83333 3.16667C4.83333 2.24619 5.57953 1.5 6.5 1.5C7.42047 1.5 8.16667 2.24619 8.16667 3.16667M16.5 3.16667H8.16667M1.5 9H11.5M11.5 9C11.5 9.92047 12.2462 10.6667 13.1667 10.6667C14.0871 10.6667 14.8333 9.92047 14.8333 9M11.5 9C11.5 8.07953 12.2462 7.33333 13.1667 7.33333C14.0871 7.33333 14.8333 8.07953 14.8333 9M16.5 9H14.8333M1.5 14.8333H3.16667M3.16667 14.8333C3.16667 15.7538 3.91286 16.5 4.83333 16.5C5.75381 16.5 6.5 15.7538 6.5 14.8333M3.16667 14.8333C3.16667 13.9129 3.91286 13.1667 4.83333 13.1667C5.75381 13.1667 6.5 13.9129 6.5 14.8333M16.5 14.8333H6.5" stroke="#67686A" stroke-width="2" stroke-linecap="round"/>
</svg>
